<svg width="291" height="60" viewBox="0 0 291 60" fill="none" xmlns="http://www.w3.org/2000/svg">
<path d="M36.9569 44.5811C40.6958 40.8007 43 35.6585 43 30C43 24.3415 40.6958 19.1993 36.9569 15.4189C36.8751 15.3267 36.7911 15.2376 36.703 15.1506C36.6149 15.0635 36.5226 14.9825 36.4283 14.9025C32.5579 11.2507 27.2932 9 21.5 9C15.7068 9 10.4411 11.2507 6.57169 14.9025C6.47737 14.9825 6.38615 15.0645 6.29701 15.1506C6.20786 15.2366 6.12494 15.3267 6.04305 15.4189C2.30424 19.1983 0 24.3415 0 30C0 35.6585 2.30424 40.8007 6.04305 44.5811C6.12494 44.6733 6.2089 44.7624 6.29701 44.8494C6.38511 44.9365 6.4784 45.0185 6.57273 45.0985C10.4432 48.7504 15.7068 51 21.5 51C27.2932 51 32.5568 48.7493 36.4273 45.0985C36.5216 45.0185 36.6138 44.9365 36.703 44.8494C36.7911 44.7634 36.8751 44.6733 36.9569 44.5811ZM42.0547 30C42.0547 34.2624 40.6864 38.219 38.3573 41.473C38.632 39.7154 38.3438 37.5903 37.4814 35.209C36.9663 33.7845 36.2656 32.3225 35.4042 30.8575C35.596 30.6216 35.711 30.324 35.711 30C35.711 29.676 35.596 29.3784 35.4042 29.1425C36.2656 27.6775 36.9663 26.2155 37.4814 24.791C38.3428 22.4097 38.632 20.2846 38.3573 18.527C40.6854 21.781 42.0547 25.7376 42.0547 30ZM35.7939 44.4131C33.9935 45.9307 30.9429 46.0512 27.1471 44.7411C25.7561 44.2612 24.3277 43.6092 22.8931 42.8084C22.9045 42.7385 22.9118 42.6666 22.9118 42.5937C22.9118 42.4611 22.8921 42.3345 22.8558 42.213C24.9403 40.829 26.9989 39.1595 28.9372 37.2663C30.8693 35.3791 32.5734 33.3755 33.9883 31.3465C34.0878 31.3688 34.1914 31.381 34.2982 31.381C34.405 31.381 34.5045 31.3688 34.603 31.3476C35.427 32.7538 36.0977 34.154 36.591 35.5168C37.9323 39.2233 37.809 42.2039 36.2552 43.9625C36.1039 44.1154 35.9494 44.2663 35.7929 44.4141L35.7939 44.4131ZM6.74376 43.9615C5.18998 42.2029 5.06663 39.2233 6.40792 35.5158C6.90131 34.153 7.57092 32.7528 8.39497 31.3465C8.49241 31.3668 8.59295 31.3789 8.69661 31.3789C8.80026 31.3789 8.9091 31.3658 9.00964 31.3435C10.4245 33.3734 12.1286 35.3771 14.0607 37.2642C15.9991 39.1575 18.0576 40.827 20.1421 42.211C20.1069 42.3325 20.0862 42.4591 20.0862 42.5917C20.0862 42.6646 20.0934 42.7365 20.1048 42.8063C18.6702 43.6082 17.2419 44.2592 15.8508 44.7391C12.056 46.0492 9.00446 45.9287 7.20398 44.4111C7.04746 44.2632 6.89302 44.1124 6.74168 43.9595L6.74376 43.9615ZM6.74376 16.0385C6.89509 15.8856 7.04954 15.7347 7.20606 15.5869C8.1773 14.7689 9.51133 14.3558 11.1314 14.3558C12.5142 14.3558 14.1043 14.6555 15.8519 15.2589C17.245 15.7398 18.6765 16.3928 20.1141 17.1967C20.0965 17.2828 20.0872 17.3719 20.0872 17.463C20.0872 17.5784 20.1027 17.6887 20.1307 17.7961C18.0504 19.1791 15.996 20.8445 14.0618 22.7347C12.1296 24.6219 10.4256 26.6266 9.01068 28.6555C8.91013 28.6332 8.80544 28.62 8.69764 28.62C8.58984 28.62 8.49344 28.6312 8.39601 28.6524C7.57196 27.2472 6.90235 25.847 6.40895 24.4832C5.06767 20.7767 5.19101 17.7961 6.74479 16.0375L6.74376 16.0385ZM36.2562 16.0385C37.81 17.7971 37.9334 20.7767 36.5921 24.4842C36.0987 25.848 35.4291 27.2482 34.604 28.6535C34.5055 28.6322 34.4039 28.62 34.2992 28.62C34.1946 28.62 34.0888 28.6322 33.9893 28.6545C32.5744 26.6255 30.8714 24.6219 28.9382 22.7347C27.004 20.8445 24.9496 19.1791 22.8693 17.7961C22.8962 17.6898 22.9128 17.5784 22.9128 17.463C22.9128 17.3719 22.9035 17.2828 22.8859 17.1967C24.3225 16.3928 25.754 15.7398 27.1471 15.2589C28.8957 14.6555 30.4848 14.3558 31.8686 14.3558C33.4876 14.3558 34.8227 14.7689 35.7939 15.5869C35.9505 15.7347 36.1049 15.8856 36.2562 16.0385ZM22.3075 41.4618C22.0784 41.3059 21.8006 41.2128 21.5 41.2128C21.1994 41.2128 20.9216 41.3049 20.6925 41.4618C18.6526 40.1082 16.6334 38.4721 14.7303 36.6132C12.8459 34.7726 11.1864 32.8227 9.80882 30.8504C9.99747 30.6156 10.1105 30.3209 10.1105 30C10.1105 29.6791 9.99747 29.3844 9.80882 29.1496C11.1864 27.1773 12.8459 25.2274 14.7303 23.3868C16.622 21.5401 18.6257 19.9131 20.6531 18.5645C20.8895 18.7386 21.1828 18.8429 21.501 18.8429C21.8193 18.8429 22.1126 18.7386 22.3489 18.5645C24.3754 19.9131 26.3801 21.5401 28.2717 23.3868C30.1551 25.2264 31.8147 27.1753 33.1912 29.1475C33.0015 29.3824 32.8875 29.678 32.8875 30C32.8875 30.322 33.0015 30.6176 33.1912 30.8525C31.8136 32.8237 30.1541 34.7726 28.2707 36.6132C26.3666 38.4731 24.3484 40.1082 22.3085 41.4618H22.3075ZM21.5 9.92334C25.8639 9.92334 29.9147 11.2598 33.2461 13.5347C31.4467 13.2664 29.271 13.5479 26.832 14.3902C25.3819 14.8904 23.8944 15.5697 22.4028 16.404C22.1582 16.2045 21.8431 16.084 21.499 16.084C21.1548 16.084 20.8397 16.2045 20.5951 16.404C19.1035 15.5687 17.6161 14.8904 16.1659 14.3892C13.728 13.5479 11.5523 13.2654 9.75284 13.5347C13.0853 11.2598 17.1351 9.92334 21.5 9.92334ZM0.945328 30C0.945328 25.7376 2.31357 21.781 4.64268 18.527C4.368 20.2846 4.65616 22.4097 5.51752 24.791C6.03269 26.2145 6.73235 27.6754 7.59372 29.1404C7.40093 29.3763 7.28483 29.675 7.28483 30C7.28483 30.325 7.40093 30.6237 7.59372 30.8596C6.73235 32.3246 6.03269 33.7855 5.51752 35.209C4.65616 37.5903 4.36696 39.7154 4.64268 41.473C2.3146 38.219 0.945328 34.2624 0.945328 30ZM21.5 50.0767C17.1351 50.0767 13.0843 48.7392 9.75181 46.4643C10.1903 46.5301 10.6505 46.5635 11.1325 46.5635C12.6272 46.5635 14.323 46.2466 16.167 45.6108C17.6036 45.1147 19.0786 44.4434 20.5567 43.6183C20.8066 43.838 21.1372 43.9727 21.5 43.9727C21.8628 43.9727 22.1924 43.838 22.4433 43.6183C23.9214 44.4434 25.3964 45.1147 26.833 45.6108C28.6781 46.2476 30.3728 46.5635 31.8675 46.5635C32.3495 46.5635 32.8097 46.5301 33.2482 46.4643C29.9157 48.7392 25.8649 50.0767 21.5 50.0767Z" fill="url(#paint0_linear_218_2274)"/>
<path d="M58.096 39V23.136H61.048V39H58.096ZM55.6 29.088V26.352H63.808V29.088H55.6ZM66.0561 39V21.24H68.9841V28.944L68.4321 29.232C68.5921 28.656 68.9041 28.136 69.3681 27.672C69.8321 27.192 70.3841 26.808 71.0241 26.52C71.6641 26.232 72.3201 26.088 72.9921 26.088C73.9521 26.088 74.7521 26.28 75.3921 26.664C76.0481 27.048 76.5361 27.624 76.8561 28.392C77.1921 29.16 77.3601 30.12 77.3601 31.272V39H74.4081V31.488C74.4081 30.848 74.3201 30.32 74.1441 29.904C73.9681 29.472 73.6961 29.16 73.3281 28.968C72.9601 28.76 72.5121 28.664 71.9841 28.68C71.5521 28.68 71.1521 28.752 70.7841 28.896C70.4321 29.024 70.1201 29.216 69.8481 29.472C69.5921 29.712 69.3841 29.992 69.2241 30.312C69.0801 30.632 69.0081 30.984 69.0081 31.368V39H67.5441C67.2561 39 66.9841 39 66.7281 39C66.4881 39 66.2641 39 66.0561 39ZM86.6091 39.24C85.2811 39.24 84.1051 38.96 83.0811 38.4C82.0731 37.84 81.2811 37.08 80.7051 36.12C80.1451 35.144 79.8651 34.032 79.8651 32.784C79.8651 31.792 80.0251 30.888 80.3451 30.072C80.6651 29.256 81.1051 28.552 81.6651 27.96C82.2411 27.352 82.9211 26.888 83.7051 26.568C84.5051 26.232 85.3771 26.064 86.3211 26.064C87.1531 26.064 87.9291 26.224 88.6491 26.544C89.3691 26.864 89.9931 27.304 90.5211 27.864C91.0491 28.408 91.4491 29.064 91.7211 29.832C92.0091 30.584 92.1451 31.408 92.1291 32.304L92.1051 33.336H81.8571L81.3051 31.32H89.6331L89.2491 31.728V31.2C89.2011 30.704 89.0411 30.272 88.7691 29.904C88.4971 29.52 88.1451 29.224 87.7131 29.016C87.2971 28.792 86.8331 28.68 86.3211 28.68C85.5371 28.68 84.8731 28.832 84.3291 29.136C83.8011 29.44 83.4011 29.88 83.1291 30.456C82.8571 31.016 82.7211 31.72 82.7211 32.568C82.7211 33.384 82.8891 34.096 83.2251 34.704C83.5771 35.312 84.0651 35.784 84.6891 36.12C85.3291 36.44 86.0731 36.6 86.9211 36.6C87.5131 36.6 88.0571 36.504 88.5531 36.312C89.0491 36.12 89.5851 35.776 90.1611 35.28L91.6251 37.32C91.1931 37.72 90.6971 38.064 90.1371 38.352C89.5931 38.624 89.0171 38.84 88.4091 39C87.8011 39.16 87.2011 39.24 86.6091 39.24ZM107.486 44.52C106.542 44.52 105.598 44.376 104.654 44.088C103.726 43.8 102.974 43.424 102.398 42.96L103.454 40.776C103.79 41.016 104.166 41.224 104.582 41.4C104.998 41.576 105.438 41.712 105.902 41.808C106.382 41.904 106.854 41.952 107.318 41.952C108.166 41.952 108.87 41.816 109.43 41.544C110.006 41.288 110.438 40.888 110.726 40.344C111.014 39.816 111.158 39.152 111.158 38.352V36.024L111.59 36.192C111.494 36.688 111.23 37.16 110.798 37.608C110.366 38.056 109.822 38.424 109.166 38.712C108.51 38.984 107.838 39.12 107.15 39.12C105.95 39.12 104.886 38.84 103.958 38.28C103.046 37.72 102.318 36.96 101.774 36C101.246 35.024 100.982 33.904 100.982 32.64C100.982 31.376 101.246 30.256 101.774 29.28C102.302 28.288 103.022 27.512 103.934 26.952C104.862 26.376 105.902 26.088 107.054 26.088C107.534 26.088 107.998 26.144 108.446 26.256C108.894 26.368 109.302 26.528 109.67 26.736C110.054 26.944 110.398 27.176 110.702 27.432C111.006 27.688 111.254 27.96 111.446 28.248C111.638 28.536 111.758 28.816 111.806 29.088L111.182 29.28L111.23 26.352H114.134V38.136C114.134 39.16 113.982 40.064 113.678 40.848C113.374 41.632 112.934 42.296 112.358 42.84C111.782 43.4 111.086 43.816 110.27 44.088C109.454 44.376 108.526 44.52 107.486 44.52ZM107.606 36.6C108.326 36.6 108.958 36.432 109.502 36.096C110.062 35.76 110.494 35.296 110.798 34.704C111.102 34.112 111.254 33.432 111.254 32.664C111.254 31.88 111.094 31.192 110.774 30.6C110.47 29.992 110.046 29.52 109.502 29.184C108.958 28.848 108.326 28.68 107.606 28.68C106.886 28.68 106.254 28.856 105.71 29.208C105.166 29.544 104.734 30.016 104.414 30.624C104.11 31.216 103.958 31.896 103.958 32.664C103.958 33.416 104.11 34.096 104.414 34.704C104.734 35.296 105.166 35.76 105.71 36.096C106.254 36.432 106.886 36.6 107.606 36.6ZM117.548 39V26.352H120.452L120.5 30.384L120.092 29.472C120.268 28.832 120.572 28.256 121.004 27.744C121.436 27.232 121.932 26.832 122.492 26.544C123.068 26.24 123.668 26.088 124.292 26.088C124.564 26.088 124.82 26.112 125.06 26.16C125.316 26.208 125.524 26.264 125.684 26.328L124.892 29.568C124.716 29.472 124.5 29.392 124.244 29.328C123.988 29.264 123.732 29.232 123.476 29.232C123.076 29.232 122.692 29.312 122.324 29.472C121.972 29.616 121.66 29.824 121.388 30.096C121.116 30.368 120.9 30.688 120.74 31.056C120.596 31.408 120.524 31.808 120.524 32.256V39H117.548ZM132.895 39.24C131.631 39.24 130.503 38.96 129.511 38.4C128.519 37.824 127.735 37.04 127.159 36.048C126.583 35.056 126.295 33.928 126.295 32.664C126.295 31.4 126.583 30.272 127.159 29.28C127.735 28.288 128.519 27.512 129.511 26.952C130.503 26.376 131.631 26.088 132.895 26.088C134.143 26.088 135.263 26.376 136.255 26.952C137.247 27.512 138.023 28.288 138.583 29.28C139.159 30.272 139.447 31.4 139.447 32.664C139.447 33.928 139.159 35.056 138.583 36.048C138.023 37.04 137.247 37.824 136.255 38.4C135.263 38.96 134.143 39.24 132.895 39.24ZM132.895 36.624C133.583 36.624 134.191 36.448 134.719 36.096C135.263 35.744 135.687 35.272 135.991 34.68C136.311 34.088 136.463 33.416 136.447 32.664C136.463 31.896 136.311 31.216 135.991 30.624C135.687 30.032 135.263 29.568 134.719 29.232C134.191 28.88 133.583 28.704 132.895 28.704C132.207 28.704 131.583 28.88 131.023 29.232C130.479 29.568 130.055 30.04 129.751 30.648C129.447 31.24 129.295 31.912 129.295 32.664C129.295 33.416 129.447 34.088 129.751 34.68C130.055 35.272 130.479 35.744 131.023 36.096C131.583 36.448 132.207 36.624 132.895 36.624ZM144.595 39L140.347 26.352L143.371 26.328L146.203 35.352L145.675 35.304L148.747 28.248H150.523L153.667 35.304L153.043 35.376L155.899 26.352H158.923L154.651 39H152.539L149.299 31.416L149.755 31.464L146.683 39H144.595ZM163.659 39V23.136H166.611V39H163.659ZM161.163 29.088V26.352H169.371V29.088H161.163ZM171.619 39V21.24H174.547V28.944L173.995 29.232C174.155 28.656 174.467 28.136 174.931 27.672C175.395 27.192 175.947 26.808 176.587 26.52C177.227 26.232 177.883 26.088 178.555 26.088C179.515 26.088 180.315 26.28 180.955 26.664C181.611 27.048 182.099 27.624 182.419 28.392C182.755 29.16 182.923 30.12 182.923 31.272V39H179.971V31.488C179.971 30.848 179.883 30.32 179.707 29.904C179.531 29.472 179.259 29.16 178.891 28.968C178.523 28.76 178.075 28.664 177.547 28.68C177.115 28.68 176.715 28.752 176.347 28.896C175.995 29.024 175.683 29.216 175.411 29.472C175.155 29.712 174.947 29.992 174.787 30.312C174.643 30.632 174.571 30.984 174.571 31.368V39H173.107C172.819 39 172.547 39 172.291 39C172.051 39 171.827 39 171.619 39ZM193.298 44.28V26.352H196.202L196.25 29.232L195.746 29.016C195.842 28.52 196.114 28.056 196.562 27.624C197.01 27.176 197.554 26.816 198.194 26.544C198.85 26.272 199.53 26.136 200.234 26.136C201.354 26.136 202.346 26.416 203.21 26.976C204.09 27.536 204.778 28.304 205.274 29.28C205.786 30.256 206.042 31.384 206.042 32.664C206.042 33.928 205.786 35.056 205.274 36.048C204.778 37.024 204.09 37.8 203.21 38.376C202.346 38.936 201.37 39.216 200.282 39.216C199.546 39.216 198.834 39.072 198.146 38.784C197.474 38.496 196.898 38.12 196.418 37.656C195.954 37.192 195.666 36.704 195.554 36.192L196.274 35.856V44.28H193.298ZM199.682 36.6C200.354 36.6 200.954 36.432 201.482 36.096C202.01 35.76 202.418 35.296 202.706 34.704C203.01 34.112 203.162 33.432 203.162 32.664C203.162 31.896 203.018 31.224 202.73 30.648C202.442 30.056 202.034 29.592 201.506 29.256C200.978 28.92 200.37 28.752 199.682 28.752C198.978 28.752 198.362 28.92 197.834 29.256C197.322 29.576 196.914 30.032 196.61 30.624C196.306 31.216 196.154 31.896 196.154 32.664C196.154 33.432 196.306 34.112 196.61 34.704C196.914 35.296 197.322 35.76 197.834 36.096C198.362 36.432 198.978 36.6 199.682 36.6ZM208.673 39V26.352H211.577L211.625 30.384L211.217 29.472C211.393 28.832 211.697 28.256 212.129 27.744C212.561 27.232 213.057 26.832 213.617 26.544C214.193 26.24 214.793 26.088 215.417 26.088C215.689 26.088 215.945 26.112 216.185 26.16C216.441 26.208 216.649 26.264 216.809 26.328L216.017 29.568C215.841 29.472 215.625 29.392 215.369 29.328C215.113 29.264 214.857 29.232 214.601 29.232C214.201 29.232 213.817 29.312 213.449 29.472C213.097 29.616 212.785 29.824 212.513 30.096C212.241 30.368 212.025 30.688 211.865 31.056C211.721 31.408 211.649 31.808 211.649 32.256V39H208.673ZM224.02 39.24C222.756 39.24 221.628 38.96 220.636 38.4C219.644 37.824 218.86 37.04 218.284 36.048C217.708 35.056 217.42 33.928 217.42 32.664C217.42 31.4 217.708 30.272 218.284 29.28C218.86 28.288 219.644 27.512 220.636 26.952C221.628 26.376 222.756 26.088 224.02 26.088C225.268 26.088 226.388 26.376 227.38 26.952C228.372 27.512 229.148 28.288 229.708 29.28C230.284 30.272 230.572 31.4 230.572 32.664C230.572 33.928 230.284 35.056 229.708 36.048C229.148 37.04 228.372 37.824 227.38 38.4C226.388 38.96 225.268 39.24 224.02 39.24ZM224.02 36.624C224.708 36.624 225.316 36.448 225.844 36.096C226.388 35.744 226.812 35.272 227.116 34.68C227.436 34.088 227.588 33.416 227.572 32.664C227.588 31.896 227.436 31.216 227.116 30.624C226.812 30.032 226.388 29.568 225.844 29.232C225.316 28.88 224.708 28.704 224.02 28.704C223.332 28.704 222.708 28.88 222.148 29.232C221.604 29.568 221.18 30.04 220.876 30.648C220.572 31.24 220.42 31.912 220.42 32.664C220.42 33.416 220.572 34.088 220.876 34.68C221.18 35.272 221.604 35.744 222.148 36.096C222.708 36.448 223.332 36.624 224.02 36.624ZM234.58 39V23.136H237.532V39H234.58ZM232.084 29.088V26.352H240.292V29.088H232.084ZM248.207 39.24C246.943 39.24 245.815 38.96 244.823 38.4C243.831 37.824 243.047 37.04 242.471 36.048C241.895 35.056 241.607 33.928 241.607 32.664C241.607 31.4 241.895 30.272 242.471 29.28C243.047 28.288 243.831 27.512 244.823 26.952C245.815 26.376 246.943 26.088 248.207 26.088C249.455 26.088 250.575 26.376 251.567 26.952C252.559 27.512 253.335 28.288 253.895 29.28C254.471 30.272 254.759 31.4 254.759 32.664C254.759 33.928 254.471 35.056 253.895 36.048C253.335 37.04 252.559 37.824 251.567 38.4C250.575 38.96 249.455 39.24 248.207 39.24ZM248.207 36.624C248.895 36.624 249.503 36.448 250.031 36.096C250.575 35.744 250.999 35.272 251.303 34.68C251.623 34.088 251.775 33.416 251.759 32.664C251.775 31.896 251.623 31.216 251.303 30.624C250.999 30.032 250.575 29.568 250.031 29.232C249.503 28.88 248.895 28.704 248.207 28.704C247.519 28.704 246.895 28.88 246.335 29.232C245.791 29.568 245.367 30.04 245.063 30.648C244.759 31.24 244.607 31.912 244.607 32.664C244.607 33.416 244.759 34.088 245.063 34.68C245.367 35.272 245.791 35.744 246.335 36.096C246.895 36.448 247.519 36.624 248.207 36.624ZM262.824 39.24C261.64 39.24 260.576 38.952 259.632 38.376C258.688 37.8 257.944 37.016 257.4 36.024C256.856 35.032 256.584 33.912 256.584 32.664C256.584 31.416 256.856 30.296 257.4 29.304C257.944 28.312 258.688 27.528 259.632 26.952C260.576 26.376 261.64 26.088 262.824 26.088C263.96 26.088 264.992 26.304 265.92 26.736C266.848 27.168 267.568 27.768 268.08 28.536L266.448 30.504C266.208 30.168 265.904 29.864 265.536 29.592C265.168 29.32 264.776 29.104 264.36 28.944C263.944 28.784 263.528 28.704 263.112 28.704C262.408 28.704 261.776 28.88 261.216 29.232C260.672 29.568 260.24 30.04 259.92 30.648C259.6 31.24 259.44 31.912 259.44 32.664C259.44 33.416 259.6 34.088 259.92 34.68C260.256 35.272 260.704 35.744 261.264 36.096C261.824 36.448 262.448 36.624 263.136 36.624C263.552 36.624 263.952 36.56 264.336 36.432C264.736 36.288 265.112 36.088 265.464 35.832C265.816 35.576 266.144 35.256 266.448 34.872L268.08 36.864C267.536 37.568 266.784 38.144 265.824 38.592C264.88 39.024 263.88 39.24 262.824 39.24ZM276.121 39.24C274.857 39.24 273.729 38.96 272.737 38.4C271.745 37.824 270.961 37.04 270.385 36.048C269.809 35.056 269.521 33.928 269.521 32.664C269.521 31.4 269.809 30.272 270.385 29.28C270.961 28.288 271.745 27.512 272.737 26.952C273.729 26.376 274.857 26.088 276.121 26.088C277.369 26.088 278.489 26.376 279.481 26.952C280.473 27.512 281.249 28.288 281.809 29.28C282.385 30.272 282.673 31.4 282.673 32.664C282.673 33.928 282.385 35.056 281.809 36.048C281.249 37.04 280.473 37.824 279.481 38.4C278.489 38.96 277.369 39.24 276.121 39.24ZM276.121 36.624C276.809 36.624 277.417 36.448 277.945 36.096C278.489 35.744 278.913 35.272 279.217 34.68C279.537 34.088 279.689 33.416 279.673 32.664C279.689 31.896 279.537 31.216 279.217 30.624C278.913 30.032 278.489 29.568 277.945 29.232C277.417 28.88 276.809 28.704 276.121 28.704C275.433 28.704 274.809 28.88 274.249 29.232C273.705 29.568 273.281 30.04 272.977 30.648C272.673 31.24 272.521 31.912 272.521 32.664C272.521 33.416 272.673 34.088 272.977 34.68C273.281 35.272 273.705 35.744 274.249 36.096C274.809 36.448 275.433 36.624 276.121 36.624ZM285.338 39V21.24H288.314V39H285.338Z" fill="url(#paint1_linear_218_2274)"/>
<defs>
<linearGradient id="paint0_linear_218_2274" x1="0" y1="30" x2="43" y2="30" gradientUnits="userSpaceOnUse">
<stop stop-color="#926128"/>
<stop offset="0.25" stop-color="#B99A45"/>
<stop offset="0.5" stop-color="#E3D6B4"/>
<stop offset="0.79" stop-color="#B99A45"/>
<stop offset="1" stop-color="#926128"/>
</linearGradient>
<linearGradient id="paint1_linear_218_2274" x1="55" y1="30" x2="291" y2="30" gradientUnits="userSpaceOnUse">
<stop stop-color="#926128"/>
<stop offset="0.25" stop-color="#B99A45"/>
<stop offset="0.5" stop-color="#E3D6B4"/>
<stop offset="0.79" stop-color="#B99A45"/>
<stop offset="1" stop-color="#916027"/>
</linearGradient>
</defs>
</svg>
