<svg width="34" height="34" viewBox="0 0 34 34" fill="none" xmlns="http://www.w3.org/2000/svg">
<rect x="-0.394967" y="17" width="24.6" height="24.6" rx="7.5" transform="rotate(-45 -0.394967 17)" fill="#353535"/>
<rect x="-0.394967" y="17" width="24.6" height="24.6" rx="7.5" transform="rotate(-45 -0.394967 17)" stroke="url(#paint0_linear_936_17453)" stroke-width="0.6"/>
<path fill-rule="evenodd" clip-rule="evenodd" d="M14.4543 9.61177C14.1229 9.61177 13.8543 9.8804 13.8543 10.2118C13.8543 10.5431 14.1229 10.8118 14.4543 10.8118L16.3998 10.8118L11.4844 15.7271C10.9218 16.2897 10.6058 17.0528 10.6058 17.8484C10.6058 18.6441 10.9218 19.4071 11.4844 19.9698L12.333 20.8183C12.5673 21.0526 12.9472 21.0526 13.1815 20.8183C13.4158 20.584 13.4158 20.2041 13.1815 19.9698L12.333 19.1212C11.9954 18.7837 11.8058 18.3258 11.8058 17.8484C11.8058 17.371 11.9954 16.9132 12.333 16.5756L17.2484 11.6602L17.2484 13.6059C17.2484 13.9373 17.517 14.2059 17.8484 14.2059C18.1798 14.2059 18.4484 13.9373 18.4484 13.6059V10.2158C18.4485 10.1975 18.4478 10.1791 18.4463 10.1609C18.4426 10.1167 18.4341 10.0739 18.4213 10.033C18.3934 9.94318 18.3438 9.85858 18.2727 9.78742C18.153 9.66771 17.9952 9.60916 17.8384 9.61177L14.4543 9.61177ZM20.8183 13.1816C21.0526 12.9473 21.4325 12.9473 21.6669 13.1816L22.5154 14.0301C23.078 14.5927 23.3941 15.3558 23.3941 16.1515C23.3941 16.9471 23.078 17.7102 22.5154 18.2728L17.6 23.1881L19.5454 23.1881C19.8768 23.1881 20.1454 23.4568 20.1454 23.7881C20.1454 24.1195 19.8768 24.3881 19.5454 24.3881L16.1619 24.3881C16.0049 24.3908 15.847 24.3323 15.7272 24.2125C15.683 24.1683 15.6471 24.1189 15.6196 24.0664C15.576 23.9832 15.5513 23.8885 15.5513 23.7881L15.5513 20.394C15.5513 20.0626 15.82 19.794 16.1513 19.794C16.4827 19.794 16.7513 20.0626 16.7513 20.394V22.3398L21.6669 17.4243C22.0044 17.0867 22.1941 16.6288 22.1941 16.1515C22.1941 15.6741 22.0044 15.2162 21.6669 14.8787L20.8183 14.0301C20.584 13.7958 20.584 13.4159 20.8183 13.1816Z" fill="url(#paint1_linear_936_17453)"/>
<defs>
<linearGradient id="paint0_linear_936_17453" x1="0.0292969" y1="29" x2="24.0293" y2="29" gradientUnits="userSpaceOnUse">
<stop stop-color="#926128"/>
<stop offset="0.25" stop-color="#B99A45"/>
<stop offset="0.5" stop-color="#E3D6B4"/>
<stop offset="0.79" stop-color="#B99A45"/>
<stop offset="1" stop-color="#916027"/>
</linearGradient>
<linearGradient id="paint1_linear_936_17453" x1="10.0112" y1="9.87471" x2="24.2671" y2="24.1305" gradientUnits="userSpaceOnUse">
<stop stop-color="#E3D6B4"/>
<stop offset="0.505" stop-color="#B99A45"/>
<stop offset="1" stop-color="#916027"/>
</linearGradient>
</defs>
</svg>
